<svg width="54" height="55" fill="none" xmlns="http://www.w3.org/2000/svg"><path d="M2.619 36c-.384 0-.672-.08-.864-.24-.16-.192-.24-.464-.24-.816V1.296c0-.288.064-.512.192-.672.16-.16.368-.24.624-.24h5.856c.48 0 .72.288.72.864v11.184c0 .384.112.576.336.576.128 0 .304-.08.528-.24 1.92-1.792 4.16-2.688 6.72-2.688 3.2 0 5.664 1.184 7.392 3.552 1.76 2.368 2.64 5.536 2.64 9.504 0 4.128-.96 7.392-2.88 9.792-1.92 2.368-4.608 3.552-8.064 3.552-1.632 0-3.104-.368-4.416-1.104-1.28-.736-2.336-1.664-3.168-2.784-.16-.16-.272-.24-.336-.24-.096 0-.176.128-.24.384l-.576 2.304c-.096.352-.224.608-.384.768-.16.128-.4.192-.72.192h-3.12zm6.288-8.784c0 1.376.464 2.512 1.392 3.408.96.896 2.096 1.344 3.408 1.344 3.52 0 5.28-2.912 5.28-8.736 0-2.912-.432-5.04-1.296-6.384-.832-1.376-2.096-2.064-3.792-2.064-1.92 0-3.584.848-4.992 2.544v9.888zM23.812 52.848c0 .416-.112.72-.336.912-.192.16-.528.24-1.008.24h-5.664c-.704 0-1.056-.336-1.056-1.008v-6.096c0-.288.064-.496.192-.624.16-.16.352-.24.576-.24h6.576c.48 0 .72.272.72.816v6zM45.054 54c-.672 0-1.008-.32-1.008-.96v-1.344c0-.256-.08-.384-.24-.384-.096 0-.24.064-.432.192a11.874 11.874 0 0 1-3.072 2.16c-1.088.544-2.4.816-3.936.816-3.008 0-5.44-1.12-7.296-3.36-1.824-2.24-2.736-5.456-2.736-9.648 0-2.624.464-4.944 1.392-6.96.96-2.048 2.24-3.632 3.84-4.752 1.6-1.12 3.36-1.68 5.28-1.68 1.248 0 2.368.208 3.36.624 1.024.416 2 1.056 2.928 1.92.224.16.384.24.48.24.224 0 .336-.208.336-.624V19.248c0-.576.256-.864.768-.864h5.856c.224 0 .4.08.528.24.16.16.24.384.24.672v33.696c0 .352-.08.608-.24.768-.16.16-.448.24-.864.24h-5.184zM43.95 35.184c-.736-.8-1.472-1.392-2.208-1.776-.704-.384-1.504-.576-2.4-.576-1.696 0-3.04.704-4.032 2.112-.992 1.376-1.488 3.52-1.488 6.432 0 2.944.48 5.104 1.44 6.48.96 1.344 2.288 2.016 3.984 2.016 1.28 0 2.384-.416 3.312-1.248.928-.864 1.392-1.856 1.392-2.976V35.184z" fill="#fff"/></svg>