<?xml version="1.0" encoding="UTF-8" standalone="no"?>
<!-- Created with Inkscape (http://www.inkscape.org/) -->

<svg
   xmlns:dc="http://purl.org/dc/elements/1.1/"
   xmlns:cc="http://creativecommons.org/ns#"
   xmlns:rdf="http://www.w3.org/1999/02/22-rdf-syntax-ns#"
   xmlns:svg="http://www.w3.org/2000/svg"
   xmlns="http://www.w3.org/2000/svg"
   xmlns:sodipodi="http://sodipodi.sourceforge.net/DTD/sodipodi-0.dtd"
   xmlns:inkscape="http://www.inkscape.org/namespaces/inkscape"
   width="117.00124mm"
   height="41.644264mm"
   viewBox="0 0 117.00124 41.644263"
   version="1.1"
   id="svg8"
   inkscape:version="0.92.4 (5da689c313, 2019-01-14)"
   sodipodi:docname="bdov.dev.svg">
  <defs
     id="defs2" />
  <sodipodi:namedview
     id="base"
     pagecolor="#000000"
     bordercolor="#666666"
     borderopacity="1.0"
     inkscape:pageopacity="0"
     inkscape:pageshadow="2"
     inkscape:zoom="2.8"
     inkscape:cx="327.67151"
     inkscape:cy="61.570159"
     inkscape:document-units="mm"
     inkscape:current-layer="g4707"
     showgrid="false"
     inkscape:window-width="3200"
     inkscape:window-height="1644"
     inkscape:window-x="-16"
     inkscape:window-y="-16"
     inkscape:window-maximized="1"
     units="mm"
     width="50mm"
     fit-margin-top="0"
     fit-margin-left="0"
     fit-margin-right="0"
     fit-margin-bottom="0" />
  <metadata
     id="metadata5">
    <rdf:RDF>
      <cc:Work
         rdf:about="">
        <dc:format>image/svg+xml</dc:format>
        <dc:type
           rdf:resource="http://purl.org/dc/dcmitype/StillImage" />
        <dc:title></dc:title>
      </cc:Work>
    </rdf:RDF>
  </metadata>
  <g
     inkscape:label="Layer 1"
     inkscape:groupmode="layer"
     id="layer1"
     transform="translate(-0.07530357,-247.46665)">
    <flowRoot
       xml:space="preserve"
       id="flowRoot3725"
       style="font-style:normal;font-weight:normal;font-size:40px;line-height:1.25;font-family:sans-serif;letter-spacing:0px;word-spacing:0px;fill:#000000;fill-opacity:1;stroke:none"
       transform="scale(0.26458333)"><flowRegion
         id="flowRegion3727"><rect
           id="rect3729"
           width="95.964493"
           height="89.90358"
           x="307.08636"
           y="127.51942" /></flowRegion><flowPara
         id="flowPara3731"></flowPara></flowRoot>    <flowRoot
       xml:space="preserve"
       id="flowRoot3733"
       style="font-style:normal;font-weight:normal;font-size:40px;line-height:1.25;font-family:sans-serif;letter-spacing:0px;word-spacing:0px;fill:#000000;fill-opacity:1;stroke:none"
       transform="scale(0.26458333)"><flowRegion
         id="flowRegion3735"><rect
           id="rect3737"
           width="65.659912"
           height="177.78685"
           x="388.90872"
           y="-16.932386" /></flowRegion><flowPara
         id="flowPara3739"></flowPara></flowRoot>    <flowRoot
       xml:space="preserve"
       id="flowRoot3741"
       style="font-style:normal;font-weight:normal;font-size:40px;line-height:1.25;font-family:sans-serif;letter-spacing:0px;word-spacing:0px;fill:#000000;fill-opacity:1;stroke:none"
       transform="scale(0.26458333)"><flowRegion
         id="flowRegion3743"><rect
           id="rect3745"
           width="44.446712"
           height="64.649765"
           x="77.781746"
           y="123.47882" /></flowRegion><flowPara
         id="flowPara3747"></flowPara></flowRoot>    <g
       aria-label="bdov"
       style="font-style:normal;font-weight:normal;font-size:14.11111069px;line-height:6.25;font-family:sans-serif;letter-spacing:0px;word-spacing:0px;fill:#ffffff;fill-opacity:1;stroke:none;stroke-width:0.26458332"
       id="text3723">
      <path
         inkscape:connector-curvature="0"
         d="m 16.788165,57.585857 q -0.4572,0 -0.6604,-0.1524 -0.1524,-0.2032 -0.1524,-0.6604 V 20.603458 q 0,-0.7112 0.6096,-0.7112 h 3.1496 q 0.508,0 0.508,0.7112 v 12.446 q 0,0.5588 0.254,0.5588 0.1524,0 0.508,-0.254 3.4036,-3.2004 8.128,-3.2004 5.334,0 8.0772,3.8608 2.794,3.81 2.794,9.9568 0,6.553199 -3.0988,10.363199 -3.048,3.7592 -8.4836,3.7592 -3.0988,0 -5.1308,-1.2192 -2.032,-1.27 -3.1496,-2.794 -0.1524,-0.2032 -0.3048,-0.2032 -0.2032,0 -0.254,0.3556 l -0.254,2.54 q -0.1016,0.4572 -0.3048,0.6604 -0.1524,0.1524 -0.6096,0.1524 z m 3.4544,-9.093199 q 0,1.778 1.016,3.301999 1.0668,1.4732 2.7432,2.3876 1.6764,0.8636 3.5052,0.8636 3.6576,0 5.842,-2.7432 2.2352,-2.743199 2.2352,-8.229599 0,-5.1816 -1.9812,-7.9756 -1.9812,-2.8448 -5.7404,-2.8448 -2.286,0 -4.2672,1.016 -1.9304,1.016 -3.3528,2.7432 z"
         style="font-style:normal;font-variant:normal;font-weight:bold;font-stretch:normal;font-size:50.79999924px;line-height:6.25;font-family:'Libre Franklin';-inkscape-font-specification:'Libre Franklin';fill:#ffffff;fill-opacity:1;stroke-width:0.26458332"
         id="path4582" />
      <path
         inkscape:connector-curvature="0"
         d="m 65.587121,57.585857 q -0.7112,0 -0.7112,-0.7112 v -2.1844 q 0,-0.4572 -0.254,-0.4572 -0.1524,0 -0.4064,0.254 -1.524,1.524 -3.3528,2.5908 -1.778,1.016 -4.6228,1.016 -3.2512,0 -5.7912,-1.524 -2.54,-1.524 -4.0132,-4.572 -1.4732,-3.098799 -1.4732,-7.467599 0,-4.2672 1.524,-7.5184 1.524,-3.2512 4.2164,-5.0292 2.6924,-1.8288 6.1468,-1.8288 2.286,0 3.9624,0.7112 1.6764,0.7112 3.1496,1.9812 0.4064,0.3048 0.5588,0.3048 0.254,0 0.254,-0.6604 v -11.938 q 0,-0.6604 0.5588,-0.6604 h 3.0988 q 0.5588,0 0.5588,0.6604 v 36.220399 q 0,0.4572 -0.1524,0.6604 -0.1524,0.1524 -0.6604,0.1524 z m -0.8636,-20.980399 q -1.6256,-1.6256 -3.302,-2.4384 -1.6256,-0.8636 -3.556,-0.8636 -3.8608,0 -6.1976,2.8956 -2.3368,2.8956 -2.3368,8.1788 0,5.334 2.286,7.975599 2.3368,2.6416 5.9436,2.6416 1.9812,0 3.6068,-0.9144 1.6764,-0.9652 2.5908,-2.3876 0.9652,-1.422399 0.9652,-2.844799 z"
         style="font-style:normal;font-variant:normal;font-weight:bold;font-stretch:normal;font-size:50.79999924px;line-height:6.25;font-family:'Libre Franklin';-inkscape-font-specification:'Libre Franklin';fill:#ffffff;fill-opacity:1;stroke-width:0.26458332"
         id="path4584" />
      <path
         inkscape:connector-curvature="0"
         d="m 88.173276,58.093857 q -3.81,0 -6.7564,-1.7272 -2.8956,-1.778 -4.5212,-4.9276 -1.5748,-3.149599 -1.5748,-7.162799 0,-4.1148 1.6256,-7.3152 1.6764,-3.2004 4.572,-4.9784 2.9464,-1.8288 6.7056,-1.8288 3.7592,0 6.6548,1.8288 2.9464,1.778 4.5212,4.9784 1.625604,3.2004 1.625604,7.2644 0,4.0132 -1.625604,7.162799 -1.6256,3.1496 -4.572,4.9276 -2.8956,1.778 -6.6548,1.778 z m 0.1016,-3.2004 q 3.9624,0 6.1468,-2.8448 2.2352,-2.895599 2.2352,-7.924799 0,-4.9784 -2.286,-7.874 -2.2352,-2.9464 -6.1468,-2.9464 -3.9624,0 -6.2484,2.9464 -2.286,2.8956 -2.286,7.874 0,4.9784 2.286,7.873999 2.286,2.8956 6.2992,2.8956 z"
         style="font-style:normal;font-variant:normal;font-weight:bold;font-stretch:normal;font-size:50.79999924px;line-height:6.25;font-family:'Libre Franklin';-inkscape-font-specification:'Libre Franklin';fill:#ffffff;fill-opacity:1;stroke-width:0.26458332"
         id="path4586" />
      <path
         inkscape:connector-curvature="0"
         d="m 128.06001,30.661858 q 0.3556,0 0.4572,0.254 0.1524,0.2032 0.0508,0.4572 l -10.3124,25.450799 q -0.254,0.762 -1.1684,0.762 h -1.8288 q -0.9652,0 -1.27,-0.7112 l -10.2616,-25.450799 q -0.0508,-0.1016 -0.0508,-0.254 0,-0.508 0.6096,-0.508 h 3.1496 q 0.5588,0 0.8128,0.5588 l 7.9756,19.964399 q 0.1524,0.508 0.3556,0.508 0.2032,0 0.4572,-0.5588 l 7.9248,-19.913599 q 0.1524,-0.5588 0.762,-0.5588 z"
         style="font-style:normal;font-variant:normal;font-weight:bold;font-stretch:normal;font-size:50.79999924px;line-height:6.25;font-family:'Libre Franklin';-inkscape-font-specification:'Libre Franklin';fill:#ffffff;fill-opacity:1;stroke-width:0.26458332"
         id="path4588" />
      <flowRoot
         xml:space="preserve"
         id="flowRoot4631"
         style="font-style:normal;font-weight:normal;font-size:133.33334351px;line-height:1.25;font-family:sans-serif;letter-spacing:0px;word-spacing:0px;fill:#ffffff;fill-opacity:1;stroke:none"><flowRegion
           id="flowRegion4633"
           style="fill:#ffffff"><rect
             id="rect4635"
             width="700"
             height="215"
             x="1.4285715"
             y="68.233971"
             style="fill:#ffffff" /></flowRegion><flowPara
           id="flowPara4637"></flowPara></flowRoot>      <flowRoot
         xml:space="preserve"
         id="flowRoot4664"
         style="font-style:normal;font-weight:normal;font-size:133.33334351px;line-height:1.25;font-family:sans-serif;letter-spacing:0px;word-spacing:0px;fill:#ffffff;fill-opacity:1;stroke:none"
         transform="scale(0.26458333)"><flowRegion
           id="flowRegion4666"
           style="fill:#ffffff"><rect
             id="rect4668"
             width="718.57141"
             height="365.71429"
             x="21.428572"
             y="11.805398"
             style="fill:#ffffff" /></flowRegion><flowPara
           id="flowPara4670"></flowPara></flowRoot>    </g>
    <g
       id="g4605"
       style="fill:#ffffff">
      <g
         id="text3757"
         style="font-style:normal;font-weight:normal;font-size:44.09722137px;line-height:1.25;font-family:sans-serif;letter-spacing:0px;word-spacing:0px;fill:#ffffff;fill-opacity:1;stroke:none;stroke-width:0.26458332"
         aria-label=".dev">
        <path
           inkscape:connector-curvature="0"
           id="path4591"
           style="font-size:33.51409149px;fill:#ffffff;stroke-width:0.26458332"
           d="m 118.07638,76.205704 h -3.91107 v -4.663826 h 3.91107 z" />
        <path
           inkscape:connector-curvature="0"
           id="path4593"
           style="font-size:33.51409149px;fill:#ffffff;stroke-width:0.26458332"
           d="m 140.05363,76.205704 h -3.07648 V 74.29108 q -1.32551,1.145502 -2.76557,1.783709 -1.44006,0.638208 -3.12558,0.638208 -3.27286,0 -5.20385,-2.520102 -1.91463,-2.520103 -1.91463,-6.987558 0,-2.323731 0.65458,-4.140168 0.67093,-1.816438 1.80007,-3.092853 1.11277,-1.243687 2.58556,-1.898259 1.48915,-0.654573 3.07649,-0.654573 1.44006,0 2.55283,0.310922 1.11277,0.294558 2.3401,0.932765 v -7.920322 h 3.07648 z m -3.07648,-4.500183 V 61.216003 q -1.24369,-0.556387 -2.22555,-0.769123 -0.98186,-0.212735 -2.14372,-0.212735 -2.58556,0 -4.02562,1.800073 -1.44006,1.800073 -1.44006,5.105662 0,3.256496 1.11277,4.958384 1.11277,1.685523 3.56742,1.685523 1.30914,0 2.65102,-0.572751 1.34187,-0.589115 2.50374,-1.505515 z" />
        <path
           inkscape:connector-curvature="0"
           id="path4595"
           style="font-size:33.51409149px;fill:#ffffff;stroke-width:0.26458332"
           d="m 161.40905,67.385345 h -13.46782 q 0,1.685523 0.50729,2.945574 0.5073,1.243687 1.39097,2.045538 0.85094,0.785486 2.01281,1.17823 1.17823,0.392743 2.58556,0.392743 1.86553,0 3.74742,-0.736394 1.89826,-0.752758 2.70011,-1.472787 h 0.16365 v 3.354682 q -1.55461,0.654572 -3.17468,1.096408 -1.62006,0.441837 -3.40377,0.441837 -4.54928,0 -7.10211,-2.454646 -2.55283,-2.471009 -2.55283,-7.003921 0,-4.483819 2.43828,-7.118472 2.45464,-2.634653 6.44753,-2.634653 3.69834,0 5.69478,2.160088 2.01281,2.160088 2.01281,6.136614 z m -2.99467,-2.35646 q -0.0164,-2.421917 -1.22732,-3.747425 -1.19459,-1.325509 -3.64924,-1.325509 -2.47101,0 -3.9438,1.456423 -1.45642,1.456423 -1.65279,3.616511 z" />
        <path
           inkscape:connector-curvature="0"
           id="path4597"
           style="font-size:33.51409149px;fill:#ffffff;stroke-width:0.26458332"
           d="m 181.88079,57.926778 -7.39666,18.278926 h -3.09286 L 164.0437,57.926778 h 3.33832 l 5.66205,14.547865 5.61295,-14.547865 z" />
      </g>
    </g>
    <g
       id="g4696">
      <g
         id="g4707">
        <g
           id="g4714">
          <text
             id="text4674"
             y="273.64276"
             x="-2.6410854"
             style="font-style:normal;font-weight:normal;font-size:35.27777863px;line-height:1.25;font-family:sans-serif;letter-spacing:0px;word-spacing:0px;fill:#000000;fill-opacity:1;stroke:none;stroke-width:0.26458332"
             xml:space="preserve"><tspan
               style="font-style:normal;font-variant:normal;font-weight:normal;font-stretch:normal;font-size:35.27777863px;font-family:'Libre Franklin';-inkscape-font-specification:'Libre Franklin';fill:#ffffff;stroke-width:0.26458332"
               y="273.64276"
               x="-2.6410854"
               id="tspan4672"
               sodipodi:role="line">bdov</tspan></text>
          <text
             id="text4678"
             y="288.8428"
             x="66.851242"
             style="font-style:normal;font-weight:normal;font-size:35.27777863px;line-height:1.25;font-family:sans-serif;letter-spacing:0px;word-spacing:0px;fill:#000000;fill-opacity:1;stroke:none;stroke-width:0.26458332"
             xml:space="preserve"><tspan
               style="font-style:normal;font-variant:normal;font-weight:normal;font-stretch:normal;font-size:26.45833588px;font-family:'Libre Franklin';-inkscape-font-specification:'Libre Franklin';fill:#ffffff;stroke-width:0.26458332"
               y="288.8428"
               x="66.851242"
               id="tspan4676"
               sodipodi:role="line"><tspan
   style="font-size:26.81111145px"
   id="tspan4698">.de</tspan>v</tspan></text>
        </g>
      </g>
    </g>
  </g>
</svg>
